<svg width="171" height="20" viewBox="0 0 171 20" xmlns="http://www.w3.org/2000/svg"><title>Remote Stories</title><path d="M10.072 12.448c1.8-.768 2.952-2.688 2.952-4.584 0-3.264-2.448-5.424-6.144-5.424H.544a.37.37 0 0 0-.36.36v15.864c0 .168.168.336.36.336h4.224c.216 0 .384-.168.384-.336v-5.28h.288l2.496 5.232c.096.216.312.384.552.384h5.136c.216 0 .384-.168.264-.384l-3.816-6.168zm-4.92-3.144V6.76h1.416c.816 0 1.368.504 1.368 1.272s-.552 1.272-1.368 1.272H5.152zM25.6 14.68c-.048-.168-.192-.264-.36-.192-1.08.504-2.448.792-3.672.792-2.016 0-2.016-1.512-2.016-1.512h7.704c.216 0 .336-.096.36-.288.072-.36.096-.72.096-1.08 0-4.368-2.352-6.936-6.336-6.936-4.176 0-6.96 2.784-6.96 6.96 0 4.152 2.832 6.936 7.08 6.936 1.848 0 3.696-.504 4.968-1.344.168-.096.216-.192.168-.36L25.6 14.68zm-6.072-3.432c0-1.056.72-1.752 1.8-1.752.96 0 1.608.696 1.608 1.752h-3.408zM32.464 6.04c-.072-.168-.216-.24-.384-.24h-2.688c-.216 0-.336.12-.336.336v12.528c0 .216.12.336.336.336h4.272c.216 0 .336-.12.336-.336v-7.368s.216-1.344 1.584-1.344c.72 0 1.176.48 1.176 1.512v7.2c0 .216.12.336.336.336h4.272c.216 0 .336-.12.336-.336v-7.368c-.024 0 .192-1.344 1.56-1.344.72 0 1.128.552 1.176 1.512v7.2c0 .216.12.336.336.336h4.272c.216 0 .336-.12.336-.336v-7.92c0-3.312-1.896-5.28-5.112-5.28-1.68 0-3.216.696-4.152 1.896-.528-1.2-1.848-1.896-3.576-1.896-1.608 0-3 .504-3.768 1.344l-.312-.768zm25.176-.576c-4.224 0-7.056 2.784-7.056 6.96 0 4.152 2.832 6.936 7.056 6.936s7.056-2.784 7.056-6.96c0-4.152-2.832-6.936-7.056-6.936zm0 4.32c1.416 0 2.376 1.056 2.376 2.616 0 1.584-.96 2.64-2.376 2.64s-2.376-1.056-2.376-2.616c0-1.584.96-2.64 2.376-2.64zM72.064 5.8V2.776c0-.168-.168-.36-.36-.336l-4.224.408c-.192.024-.36.168-.36.336V5.8h-1.368a.349.349 0 0 0-.336.36v2.328c0 .192.168.336.336.336h1.368v9.816c0 .192.168.36.36.36h4.224a.37.37 0 0 0 .36-.36V8.824H73.6c.192 0 .336-.168.36-.36l.264-2.328c0-.192-.144-.336-.36-.336h-1.8zm14.064 8.88c-.048-.168-.192-.264-.36-.192-1.08.504-2.448.792-3.672.792-2.016 0-2.016-1.512-2.016-1.512h7.704c.216 0 .336-.096.36-.288.072-.36.096-.72.096-1.08 0-4.368-2.352-6.936-6.336-6.936-4.176 0-6.96 2.784-6.96 6.96 0 4.152 2.832 6.936 7.08 6.936 1.848 0 3.696-.504 4.968-1.344.168-.096.216-.192.168-.36l-1.032-2.976zm-6.072-3.432c0-1.056.72-1.752 1.8-1.752.96 0 1.608.696 1.608 1.752h-3.408zm12.456 6.096c-.072.12 0 .288.192.432 1.2.96 3.312 1.584 5.328 1.584 3.696 0 6.168-2.136 6.168-5.328 0-5.28-6.792-5.184-6.792-6.6 0-.528.48-.864 1.224-.864.84.072 2.208.576 3.384 1.248.192.12.36.048.432-.192l1.512-3.384c.072-.12 0-.312-.192-.432-1.512-1.032-3.672-1.728-5.376-1.728-3.648 0-6.072 2.136-6.072 5.352 0 5.232 6.744 5.16 6.744 6.576 0 .552-.504.912-1.272.912-.912-.072-2.232-.528-3.336-1.152-.192-.12-.36-.048-.432.192l-1.512 3.384zM111.568 5.8V2.776c0-.168-.168-.36-.36-.336l-4.224.408c-.192.024-.36.168-.36.336V5.8h-1.368a.349.349 0 0 0-.336.36v2.328c0 .192.168.336.336.336h1.368v9.816c0 .192.168.36.36.36h4.224a.37.37 0 0 0 .36-.36V8.824h1.536c.192 0 .336-.168.36-.36l.264-2.328c0-.192-.144-.336-.36-.336h-1.8zm9.936-.336c-4.224 0-7.056 2.784-7.056 6.96 0 4.152 2.832 6.936 7.056 6.936s7.056-2.784 7.056-6.96c0-4.152-2.832-6.936-7.056-6.936zm0 4.32c1.416 0 2.376 1.056 2.376 2.616 0 1.584-.96 2.64-2.376 2.64s-2.376-1.056-2.376-2.616c0-1.584.96-2.64 2.376-2.64zM136.888 5.8c-1.272 0-2.448.552-3.168 1.44l-.36-1.056c-.072-.192-.192-.36-.384-.36h-2.712c-.192 0-.36.168-.36.336v12.48c0 .192.168.36.36.36h4.224a.37.37 0 0 0 .36-.36V10.6c.312-.6 1.128-1.008 2.04-1.008h.624a.328.328 0 0 0 .336-.336v-3.12a.328.328 0 0 0-.336-.336h-.624zm4.8-5.28c-1.584 0-2.64.984-2.64 2.472 0 1.416 1.056 2.376 2.64 2.376s2.64-.96 2.64-2.376c0-1.488-1.056-2.472-2.64-2.472zM139.6 5.8c-.192 0-.36.168-.36.336V18.64c0 .192.168.36.36.36h4.224a.37.37 0 0 0 .36-.36V6.136c0-.168-.168-.336-.36-.336H139.6zm17.112 8.88c-.048-.168-.192-.264-.36-.192-1.08.504-2.448.792-3.672.792-2.016 0-2.016-1.512-2.016-1.512h7.704c.216 0 .336-.096.36-.288.072-.36.096-.72.096-1.08 0-4.368-2.352-6.936-6.336-6.936-4.176 0-6.96 2.784-6.96 6.96 0 4.152 2.832 6.936 7.08 6.936 1.848 0 3.696-.504 4.968-1.344.168-.096.216-.192.168-.36l-1.032-2.976zm-6.072-3.432c0-1.056.72-1.752 1.8-1.752.96 0 1.608.696 1.608 1.752h-3.408zm9.264 6.36c-.048.144.024.264.144.384 1.344.816 3.288 1.368 4.848 1.368 3.192 0 5.304-1.728 5.304-4.296 0-4.56-5.256-4.104-5.256-5.376 0-.384.336-.624.84-.576.816 0 1.824.384 2.76.984.12.072.264.048.312-.096l1.224-2.832c.048-.12-.024-.24-.144-.336-1.272-.816-3.144-1.368-4.704-1.368-3.264 0-5.448 1.728-5.448 4.296 0 4.512 5.256 4.128 5.256 5.352 0 .36-.336.648-.84.6-.816 0-1.824-.432-2.76-.984-.12-.072-.264-.048-.312.096l-1.224 2.784z" fill="#FFF" fill-rule="evenodd"/></svg>